/* XPM */
static char *Qw__[] = {
/* columns rows colors chars-per-pixel */
"50 50 217 2 ",
"   c #1C41AC",
".  c #1C42AE",
"X  c #1C43AF",
"o  c #1C42AD",
"O  c #1B40A9",
"+  c #1B41AA",
"@  c #1C42AC",
"#  c #1C41AB",
"$  c #1C43AE",
"%  c #1C42AB",
"&  c #1C40A8",
"*  c #1B41AC",
"=  c #1B40AA",
"-  c #1C41AA",
";  c #1C43AD",
":  c #1C41AD",
">  c #194CDD",
",  c #194DDF",
"<  c #194DE0",
"1  c #194EE0",
"2  c #194DDE",
"3  c #1A4EE0",
"4  c #194CDE",
"5  c #194CDC",
"6  c #194BDB",
"7  c #194BDC",
"8  c #194DDD",
"9  c #1A4FE1",
"0  c #1A4EE1",
"q  c #1A4FE2",
"w  c #184BDB",
"e  c #194DDC",
"r  c #1A4DDF",
"t  c #1A4EDF",
"y  c #1A4DE0",
"u  c #184CDB",
"i  c #184CDF",
"p  c #184CE0",
"a  c #184BDC",
"s  c #194BDD",
"d  c #1A4FE3",
"f  c #194EE1",
"g  c #194DE1",
"h  c #1A4EE2",
"j  c #184CDD",
"k  c #194EE3",
"l  c #1A4FE4",
"z  c #184CDC",
"x  c #194EDF",
"c  c #194CDF",
"v  c #184DE1",
"b  c #194EE2",
"n  c #184DE0",
"m  c #194CDB",
"M  c #184CDE",
"N  c #194BDA",
"B  c #184BDD",
"V  c #184BDA",
"C  c #184DDE",
"Z  c #194DE2",
"A  c #1A4EE3",
"S  c #184BDF",
"D  c #194BDE",
"F  c #194EDE",
"G  c #184DDF",
"H  c #194CE0",
"J  c #184CE1",
"K  c #194FE2",
"L  c #1A4DDE",
"P  c #1A4EDE",
"I  c #2656DC",
"U  c #3D66D9",
"Y  c #4C70D5",
"T  c #4B6FD6",
"R  c #3760D5",
"E  c #2252DA",
"W  c #2253DB",
"Q  c #5C7DDA",
"!  c #A8B6DF",
"~  c #D5DCEC",
"^  c #E4E8F1",
"/  c #D0D6EA",
"(  c #9AACDE",
")  c #4C72DA",
"_  c #1F51DF",
"`  c #184BDE",
"'  c #194EE4",
"]  c #174CE1",
"[  c #305EE1",
"{  c #8CA3E3",
"}  c #E1E5F0",
"|  c #FAFBFD",
" . c #FDFDFE",
".. c #FEFEFE",
"X. c #FAFAFC",
"o. c #D8DEEE",
"O. c #6F8CDD",
"+. c #2151DD",
"@. c #184DE2",
"#. c #2556E4",
"$. c #94ACF1",
"%. c #F3F5FC",
"&. c white",
"*. c #FFFFFE",
"=. c #E1E6F2",
"-. c #6988DE",
";. c #1B4EDE",
":. c #6084EB",
">. c #EAEEFC",
",. c #FEFEFF",
"<. c #CBD4ED",
"1. c #3D67DC",
"2. c #2050D9",
"3. c #9DAFE1",
"4. c #FCFDFD",
"5. c #F8F9FB",
"6. c #819AE0",
"7. c #1B4FDE",
"8. c #184BD9",
"9. c #164ADB",
"0. c #3F68D9",
"q. c #D5DBEE",
"w. c #BBC7E9",
"e. c #2A58D8",
"r. c #164ADE",
"t. c #5A7BDA",
"y. c #E9ECF5",
"u. c #D8DEF0",
"i. c #4069DB",
"p. c #174CE2",
"a. c #194FE4",
"s. c #6A88DD",
"d. c #EFF2F8",
"f. c #E3E7F3",
"g. c #4C72DB",
"h. c #164BE0",
"j. c #164ADD",
"k. c #6583D9",
"l. c #EEF0F7",
"z. c #4A6FD7",
"x. c #164BDF",
"c. c #184CDA",
"v. c #194FE1",
"b. c #5476D7",
"n. c #E6EAF4",
"m. c #3C64D8",
"M. c #174BE1",
"N. c #174BDF",
"B. c #3964DC",
"V. c #CFD7EE",
"C. c #B8C5EB",
"Z. c #2958DE",
"A. c #2053E0",
"S. c #97ABE4",
"D. c #FBFBFC",
"F. c #F3F4F7",
"G. c #6E89D5",
"H. c #184CE2",
"J. c #4A71DD",
"K. c #D7DEF0",
"L. c #C9D3F1",
"P. c #3762DC",
"I. c #1D4FDC",
"U. c #7490DD",
"Y. c #E6E9F4",
"T. c #FDFDFD",
"R. c #DCE3F4",
"E. c #6889E6",
"W. c #1B4EDC",
"Q. c #2453DC",
"!. c #7792DE",
"~. c #D9DEEE",
"^. c #F9FAFB",
"/. c #FCFCFE",
"(. c #FCFCFD",
"). c #F7F7FA",
"_. c #C8D0E8",
"`. c #597AD5",
"'. c #2052DF",
"]. c #2051DD",
"[. c #4A6FD8",
"{. c #91A4D9",
"}. c #C3CCE5",
"|. c #D8DDEC",
" X c #D6DBEB",
".X c #BFC8E3",
"XX c #859BD9",
"oX c #4169DA",
"OX c #1B4FE2",
"+X c #2152DC",
"@X c #2F5BD6",
"#X c #3D65D6",
"$X c #3C65D8",
"%X c #2D5AD6",
"&X c #1F50D9",
"*X c #194FE3",
"=X c #1A50E4",
"-X c #1A4DE1",
";X c #194CDA",
":X c #1A4FE0",
">X c #184DDD",
",X c #194FE0",
"<X c #1B41AD",
"1X c #1A40AB",
"2X c #1A3FA9",
"3X c #1B40AB",
"4X c #1A3FA7",
"5X c #1A3EA4",
"6X c #1A40AA",
"7X c #1A3FA8",
"8X c #1A41AC",
"9X c #1B41AE",
"0X c #1A40AC",
"qX c #1A41AB",
"wX c #1A41AD",
"eX c #1A3FAA",
"rX c #1B41AB",
/* pixels */
"  . X o O + @ O # $ %   & # o @ o *   + o o + = o -   @ O O @ o ; $ o : # = #   %   * O = : o . . . ",
"> , < 1 > 2 3 4 5 3 5 6 7 8 9 1 1 3 0 < 0 q 9 , , w 2 3 e 6 5 r 3 3 2 1 0 2 2 t 3 y 3 > u i p < 1 1 ",
"a a w , s a , d f g g h r > < q , 4 , j > 6 < , , 5 > k l d < z > f 2 u x < c 4 < 4 2 < 4 < , 4 u 2 ",
"v b 0 , , 3 x 2 4 n 4 1 d x 5 < , 4 3 < b e 8 2 0 9 < < < g h , w > < m 6 j > w M b g < z > f 3 5 N ",
"y , d b , x , 2 5 c 5 2 , M 5 4 > 4 8 5 < 2 z > < < 4 , z 4 2 n 4 2 b n B 2 1 4 V > 2 , t 4 1 d f C ",
"4 7 , < C 2 4 b h h 2 5 8 , 4 2 5 m 4 > 2 , M c < 2 6 4 > 8 < Z < < b Z < 8 0 f < 4 2 4 f < < g A l ",
"5 5 a 1 5 u 2 g 3 0 0 z 8 0 f 3 < < b h < , g , , 3 4 4 < b k d h x 1 b g 7 > < 1 f < 4 M , , , , 3 ",
"> 2 , h g 4 < 1 z w , f 2 4 < , n < 1 , , > , 2 1 , < < , < g f q 2 > f h x > 2 , b d < 4 5 > 2 z a ",
"3 < 2 4 g i w 1 f > > 9 f g < , > V j f g f h < f h g g > 2 c f 3 < < f b b d 1 a , f p a > 4 h Z S ",
"4 2 3 9 1 g 5 > l y 5 , n v f 1 , f < h g p < < j 4 2 0 > 5 6 , < 3 > j h 2 , < , , < g g 1 , 4 g v ",
", 5 z 4 < < , 8 , , 4 C j g b q < , D f b c , < 3 , g b r 2 j w 5 < 1 2 2 > 7 < v < h g 2 e 4 , , i ",
", > a > 8 F f g 0 3 G h , < , 2 3 r j v 2 V m 5 y , p c r q q , > 0 f p < H 3 < v < < Z g , 1 < , H ",
"g , , , 2 2 < c f f M 0 b , 4 5 2 0 Z J < 2 8 8 0 , w 4 , f d f 4 < c B b < t G M , f K t 8 3 g g H ",
"f , 1 < < 8 j u 6 , > 4 g g 0 t 6 c g Z b 0 3 > , 0 M , < < g g 5 4 < g A , a < M 2 k f , > , g Z g ",
", , 2 f < t , 0 > a 2 M v , 2 1 c 7 4 , 3 L 8 8 w M J g 8 2 n g 4 r h v b 0 > , 3 , 4 < q q d < , g ",
", 2 C < 4 3 2 , g < < < g 3 j 2 x m > > , , b h t h Z v b , h f 2 5 < v f 1 B a , 4 w a , 2 c 4 4 Z ",
"< < d Z s > 2 m , < y 2 < f M 4 g 2 8 > , P I U Y T R E < j 5 9 d 1 G z 4 < g f < q q , 2 5 a 2 > < ",
"r 5 2 g b 3 3 f h 0 0 , 3 h b A 1 x , j W Q ! ~ ^ ^ / ( ) _ ` 4 8 2 4 , > , < Z g Z 1 , , g b h < 1 ",
", 2 > , < < , 4 f Z < j 4 3 f ' A v ] [ { } |  ..... .X.o.O.+.M 5 5 > 0 f < j g Z g 4 x f Z b q < 2 ",
"< b b c , 4 , c < H < M c 2 m 4 , @.#.$.%...&.&.&.&.&.&.*.=.-.;.1 < > j 1 , > < g p > , b g < , 2 w ",
"q b 0 8 4 V 5 g i 5 0 b v < , j 2 v :.>.&.&.&.&.&.&.&.&.&.,.<.1.@.f , j 8 2 4 2 , j u > a w > , k 4 ",
"< , 3 < 0 < > 2 , 5 , < < 1 q < g 2.3.4.&.&.&.&.&.&.&.&.&.&.5.6.7.x 9 f j 2 z 8.> h c a 4 > 5 r g < ",
"a > , M > < , , < j > > t 8 3 r 9.0.q.&.&.&.&.&.&.&.&.&.&.&.*.w.e.w 1 Z < < d 1 a g d g , 2 m V > 0 ",
", > 2 x , < f g b < 2 4 < t x h r.t.y.&.&.&.&.&.&.&.&.&.&.&.&.u.i.p.q a.k 5 , b 4 c g < 1 A h r 7 5 ",
"< 4 4 d f f i , g g 2 a a , < , r.s.d.&.&.&.&.&.&.&.&.&.&.&.&.f.g.h.< i 0 3 > 1 4 4 Z g , < g d q 2 ",
"3 2 5 3 < c M , < g , 4 a w j , j.k.l.&.&.&.&.&.&.&.&.&.&.&.&.=.z.x.4 a c.1 g h 3 e , f , j B < g b ",
"d v.e 5 a 4 g < < v < 1 , > 2 3 h.b.n.&.&.&.&.&.&.&.&.&.&.&.&.q.m.M.< < G < 4 c i g c , b g z a 4 g ",
", 0 f h f A b , , c < f 3 q 1 5 N.B.V.&.&.&.&.&.&.&.&.&.&.&.*.C.Z.v b d l q 4 a > 2 < w < d , > > H ",
"t f g 0 f g , 5 x 0 g h x f h h b A.S.D.&.&.&.&.&.&.&.&.&.&.F.G.8 z < < v @.l f y > 0 g < 0 q , f M ",
", 1 < M w w , > 4 < > z 4 M < k Z H.J.K.,.&.&.&.&.&.&.&.&.,.L.P.v , , 2 i v f h 2 8 3 g < , 0 8 2 0 ",
"< 5 > n < , , , 8 3 , j a M n v g H I.U.Y...&.&.&.&.&.&.T.R.E.W.8 z w > i < 4 0 h g 3 > w w 5 c w 4 ",
"c 2 5 f , , z 4 i < q b 1 < G , z 4 a Q.!.~.^./. . .(.)._.`.'.w > 2 4 < < c > 2 1 g , x x 2 , , 2 4 ",
"4 , 2 h , 2 < < g > 1 d b 1 4 4 > > 2 4 ].[.{.}.|. X.XXXoXW.g 0 < h f Z g 2 2 , 8 < b 0 0 0 h < b g ",
"g < 8 0 b b A A d > > , i < f n < g < 5 2 OX+X@X#X$X%X&X, c 4 q 3 , < < f t 4 < 3 e 8 < g g 0 1 *Xd ",
"Z f 4 b h g 2 w x 1 a 7 a M < g g A b < > 2 d < 2 =Xq 2 -X< a > g s 4 > x d f c 4 t 5 a j g j > , h ",
"1 h > M , 4 4 f 2 < g 1 h g b q , 0 d 0 < > M 2 j i < , 0 g , u 2 > r 1 M i , z s 1 h A 4 g M m 5 < ",
"8 f < w 5 3 1 Z M , b < f g n , 2 c j w r 1 < < 4 V 5 4 j < < > m 2 j @.< > < < c 5 5 2 m , h > > 8 ",
", < Z , 4 < , 2 < 2 , < 4 g g 8 u > , < 2 < Z b d f < < < f K l 2 > j J c c g < 1 b 1 f 3 ;Xr h g , ",
", < b , 6 4 4 , 2 4 > < s M , < 0 , 8 , 4 < h < 0 1 , :X9 b b k f < 4 g < c b 2 < b f 1 1 f M , > f ",
"4 u y x 8 > 2 q < G 4 < < a 4 4 b b 2 , 5 m g > 2 2 m 2 , < 2 , f d < g g a x s 4 2 > 2 j b f f 2 2 ",
", 4 j < b d M 2 d b , < f f v > u f Z < , > g , > f > c.u 4 3 5 , 2 f < < > 2 , B j M < 4 G f d f < ",
"q f d 0 < b , m 3 q b b b K b < m < < g b j 7 -X2 8 d 3 L , f 8 > 5 , j , r , 2 4 0 b g M j w > B > ",
"< g 1 f g g d y > a 5 z >Xf g g , 2 , 8 3 d , 8 1 , < , 5 c f x 2 5 a g f h < 8 2 a a b f f , B H a ",
"4 4 M w j < 2 f b g x > m z < y 4 < , > m 2 h < 1 , , h e > 1 f b 1 , g M 0 f , < 0 g f , < b g g , ",
"g < h , > < 8 , b b b g < c g h 0 g g 2 2 5 8 < > 2 m 2 8 j , , < d f c > 2 0 , , 4 < < 5 6 , i g n ",
"g g f b , c 2 , 2 , f g < < g c , g v , , 1 n f 4 < 4 c 4 u 1 x 8 1 0 , , , , 3 9 > m c < 4 2 4 1 ,X",
"p , j 1 2 M a > 2 8 f b n B , j j , < 1 2 , b *X4 c < 0 g a 1 A 8 > 1 < < , a < b h i < b g < < 2 t ",
"v g < 2 5 , f > , M i q h B j < A g 1 h 1 3 2 k , 2 < j < 4 j J 4 V 2 > 5 h r M g g g v f g b b > z ",
"n 2 m 2 < g y r r h 5 m 9 x 2 B 4 L , > 7 , r y :Xx 3 h h > 5 , < , > r V m P i < 3 , j j 0 , > c , ",
"<X1X2X3X1X1X1X4X5X6X1X7X8X9X8X6X6X4X6X* 1X6X6X0X8XqX1X8XwXeX2X3X0XwXwX* 1XrXrX1X0X* qX<X3X2X2X2X0X* "
};
