/* XPM */
static char *result[] = {
/* columns rows colors chars-per-pixel */
"50 50 108 2 ",
"   c #373635",
".  c #383634",
"X  c #3A3937",
"o  c #3D3D3B",
"O  c #553A1F",
"+  c #4C3D2D",
"@  c #563D21",
"#  c #593E21",
"$  c #413F3D",
"%  c #4F422F",
"&  c #574226",
"*  c #5A4424",
"=  c #5F4827",
"-  c #53432C",
";  c #5C462B",
":  c #5E492B",
">  c #4C4234",
",  c #42403E",
"<  c #544631",
"1  c #5C4732",
"2  c #5D4C34",
"3  c #554A3A",
"4  c #5D4E3A",
"5  c #5D523F",
"6  c #614626",
"7  c #644B27",
"8  c #624729",
"9  c #664D29",
"0  c #694E2B",
"q  c #67502F",
"w  c #6B512D",
"e  c #71532F",
"r  c #78572F",
"t  c #624E34",
"y  c #6A4F32",
"u  c #614F3A",
"i  c #655135",
"p  c #6C5332",
"a  c #64523B",
"s  c #6B563A",
"d  c #6E5A3C",
"f  c #735633",
"g  c #765834",
"h  c #7A5A35",
"j  c #715738",
"k  c #74593A",
"l  c #7A5C3A",
"z  c #7C603F",
"x  c #464442",
"c  c #484745",
"v  c #474848",
"b  c #4D4B4A",
"n  c #5F4F40",
"m  c #504E4C",
"M  c #5F5243",
"N  c #565555",
"B  c #5A5857",
"V  c #5C5B5A",
"C  c #635542",
"Z  c #675945",
"A  c #6C5B45",
"S  c #665748",
"D  c #6A5C4A",
"F  c #745C41",
"G  c #795F40",
"H  c #715F4C",
"J  c #645D54",
"K  c #726147",
"L  c #7B6141",
"P  c #73614D",
"I  c #79684F",
"U  c #62615F",
"Y  c #6D6559",
"T  c #756754",
"R  c #716658",
"E  c #726A5D",
"W  c #7A6D5A",
"Q  c #656462",
"!  c #686664",
"~  c #6A6866",
"^  c #6B6B6C",
"/  c #746E65",
"(  c #7B6F61",
")  c #726F6A",
"_  c #757069",
"`  c #7B746C",
"'  c #777675",
"]  c #805E36",
"[  c #815F38",
"{  c #816038",
"}  c #816646",
"|  c #826748",
" . c #87755E",
".. c #867966",
"X. c #877B6B",
"o. c #867E75",
"O. c #837F79",
"+. c #888075",
"@. c #83807A",
"#. c #90897E",
"$. c #7F8081",
"%. c #858482",
"&. c #8B8B8B",
"*. c #908B84",
"=. c #9B958F",
"-. c #9B9690",
";. c #9F9FA0",
":. c #A1A1A1",
/* pixels */
"p 0 w z h z h h k 0 ; = e ] [ [ [ { g # O 6 ] { h j p s : * = p h k ] [ [ f * ; 0 h k g p p p 0 0 q ",
"p 0 9 r ] ] h h h 9 & & w ] ] h h h e O O * g r g p p p = * * w j g h h ] 9 * * 9 g g k j p p 0 7 q ",
"p 7 q h ] z h h h 0 * = e ] ] h p p 9 O O O 7 7 0 w p w = * * q p p g h h 0 * * 0 i y p f h r 7 7 7 ",
"p 7 7 e e r h h h 0 O O 9 h h h g g y # * * 7 7 0 w p p * O & w g f j p p 8 @ @ 9 h h h f p w q 7 q ",
"2 = : q q q d z z 9 O O 8 j s j k F p * * ; : : : s s s * O O p s j s s s 9 O O 9 g g k s s i : : : ",
",     $ , , B ~ ! 5 * & + , $ m ! ~ J ; * & , $ c Q ! ! 2 & & > , , V ! ! C & & + , $ m ! ! V X . X ",
"V N N 3 < < a D D t * * < < < 4 D D a # @ & < < 2 Z D D : * * - < < C D D 2 @ @ - < < 4 D D M - - < ",
") ) ~ d 7 q w p f 7 & & 8 0 9 0 p p 0 @ @ @ 0 0 q p p p = & * 7 0 0 w p p 8 O O 8 0 0 w p p q 7 7 q ",
"s w q q q p z r z 7 O O 8 y y f g g p * & = p p w h z h * O O 9 w p g h ] 9 O O 7 h z r 7 7 0 7 7 7 ",
"q 7 w q p p r z ] 7 O O 8 j f j h h p * * * 9 w w g g g * O O w j j g g h 9 O O 0 ] ] h w q q 7 7 w ",
"p 9 7 p p p r z ] 7 O O 8 l h h g g w * * = 7 7 q p p p * O O e h g p w y 6 O O 0 ] { h p p w 0 7 w ",
"p 7 7 f g g r g h 7 O O 8 h h f p p q * * = 7 7 7 w p p 6 & & e h h w 0 0 * O O 9 r f g p p w 7 7 w ",
"p 7 9 g z r z e r 6 O O 9 h g g f f y * * * w w 0 w 0 0 * * * e h h w 9 9 * O O 8 r h f p j p 0 7 w ",
"p 7 9 g z g f p p 6 O O 9 h h h g k y * & 6 w p p 0 9 9 O O @ e ] ] e 7 7 * O O 0 h h h h h g 7 9 7 ",
"p 9 9 r r h r 9 0 = & & 0 ] h h h k e @ O & q p p 7 9 9 # @ @ e ] ] f 0 w 7 & & 9 f y j h f r 0 9 7 ",
"p 9 9 h h ] e 9 0 = & * e ] ] h f g y @ @ * p f p 0 9 9 # @ @ r { h g p f 9 * * ; y y e f h r 7 9 w ",
"p 7 0 h ] ] g p p 7 * * w h ] h y p 0 * * 6 h ] h 0 7 7 = * * g ] ] h k h 0 # * 6 7 9 e { ] r q 7 9 ",
"p 7 0 h ] [ h h f 7 * * w g g p 0 0 9 # # * h { ] r r r 6 * * r ] h ] h ] 9 @ O 6 0 7 0 j p e 7 0 0 ",
"i = : p k g l G L w & & : i i t i a t O O # j f f z z z : * * p k k l G G y O O * : : 9 d d i : 7 = ",
"$   X o o x B ! ~ 5 O O + , , m ! ! S O O @ , , c ! ~ ! 2 * * > x , J ~ ~ n O O + , , b Q ~ V   . X ",
"3 % % 2 u u Z D D 2 @ & ; u u a D D a & & & i u 5 Z Z Z : * * 2 u u D H P t @ # - < < 4 P I D % % < ",
"p 7 7 h ] ] g p p 9 * * e { ] h p p w * * 6 h ] z w 7 w = * * g ] ] h h g w * * 6 q 9 w ] h r 0 7 0 ",
"e 7 q h ] ] k g g 7 * * w ] ] ] l h g O O * ] ] r e p q = * * e g h ] ] ] w * * 9 f h g p p p 7 9 9 ",
"p 7 7 h ] ] h h k 0 * * w ] ] h h h w O O # e r r p p q = * * p j f h h h 0 * & 9 j j j f f w 0 9 9 ",
"p q q z r ] r z g y * * w [ ] h p p w O O # 7 7 9 p p p = * * q w p l l z p : ; q w p e g z r 9 7 9 ",
"_ ~ / L z ] z r h 0 * * w h [ ] h h r O O # r z z p p p = = = = 9 9 ..=.-.*.O.@.W 7 q 0 p p p 9 9 9 ",
"/ Y Y z ] z h r h 0 * & 0 ] ] ] h h e O O # r g r p p q = * * d I I X.#.#.o.` ` W K K A p p p 7 9 w ",
"d 9 9 r ] { h h h 0 * & w ] ] h p p q O O # 7 7 7 w p p = * * @.:.:.W 7 0 = O O D &.&.+.z g g 7 9 7 ",
"d 7 0 p e g g z h 0 # @ 0 h h h g j w * * * = 7 w q i p = @ @ o.:.;. .g r 9 O O C $.$.` d p q q 9 7 ",
"s = : : q : j z L y # @ 8 p s s F L d * * * : : : a d d ; @ @ ( *.*. .} | j 1 < S _ _ E d d a : = = ",
"v     o , $ N ! ~ C * * + x , b ! ~ J = * & , , , U ~ ! 2 * * 7 w w ( %.%.O.' ' R q q i ! ~ V X X   ",
"5 - - < < < a D D t * * - < - 2 D D C # & * : < < Z D D : * * = 7 0 A T T D C C i 7 7 p Z D d < - - ",
"d 7 7 0 q 7 w e e 7 * # 7 0 7 w y f 0 @ @ # 6 q 0 e p p 6 & & 6 0 0 w p f 6 O O * w 0 0 w w w 0 7 0 ",
"d 7 9 w p p g z z q O O 6 w w w f h f # * * p p w h { z 6 O O 9 p w h h h 0 O O 9 h ] h 9 9 7 0 9 7 ",
"d 7 9 w p p r z ] 9 O O 6 f g j k h f * * ; 9 9 q g r g 6 O O 0 j f g g g 0 O O 7 ] ] r w w 0 7 9 9 ",
"d 9 7 w p w r z ] 9 O O 9 h h g g h p * * * 9 0 q w p w 6 O O 0 g h p p w 6 O O 8 ] ] h p w w 0 9 9 ",
"d 7 7 f z e g g h 8 O @ 8 g g g p p p * * * 7 0 7 w w p : * * w h f w 7 w * O O 8 h h h p p p w 9 9 ",
"d 7 7 f g g g g f 8 O @ 8 h k j p j y = & * 0 9 w q w w * * # w h h w 0 7 6 O O 8 k h f p p e 7 9 7 ",
"z 7 7 r g h r p y 8 @ @ 8 g h g h g f * * = q p w 7 7 7 & O O e { ] e 7 0 = O O 6 h h f f g g q 7 9 ",
"d 7 7 r z h e 7 0 8 # # 0 ] ] ] h h w O O & w p p q 7 q # O O e { ] f w w 7 & & 9 p p j g g g 7 9 9 ",
"d 7 7 r ] ] e w 0 8 * * w ] ] h j g w # @ & e f r 9 7 7 * @ & w ] ] g f p 9 * * ; 0 w w h h g 9 9 9 ",
"k 7 w g ] { f p p 8 * * w ] ] h p p q * & = h h z 0 w 7 = * * r ] h h h h w * * = 0 9 w ] ] h 9 9 7 ",
"/ Y Y z ] ] h h h w * * 7 g r w w q 7 & O * ] ] h r g r 7 * * p ] ] [ h l 0 @ @ * 9 9 0 p g e 0 0 9 ",
"^ Q Q A j j l G L i & & ; 2 i i i i 9 O O # f j g z L z : * * p k g G L L y O @ * : : 2 d d i : ; ; ",
"v     o $ $ N ~ ! M O O + , , v ! ~ Y O O @ , , , U ~ ~ 5 * * > , , B ~ ~ M O O + , o b ! ~ V X . . ",
"5 % > 2 a a Z D D i # # ; a a C D D 5 & & * i p a Z Z Z : * * : u a S H H a # @ & < < 2 P P A < - + ",
"z 7 0 h ] ] h p p 7 * * w { ] h w e w * & * ] ] z w 7 9 = * * r ] [ h h h w * * 6 w 9 e { h g w 9 9 ",
"d 7 7 r ] ] h k f w * * w h ] ] z h r # O # r ] h p q p = * * w h h h ] { w * * 7 g g g p p w 7 9 7 ",
"d 7 9 r z h h r h 0 * * 0 z ] h r r w @ O # w r r w p p = * * q g f h h h 0 * * 9 f f g f f f 9 9 9 ",
"d 7 7 r ] ] h z h 0 * * 0 ] ] h p f q @ O @ 7 7 q w p p : * * q p i f h h y * * 9 p i p g g j 9 9 7 "
};
