/* XPM */
static char *_e4a14b3f54f432cb8b5169576053f87pbB3KqnJQq2cnImJ[] = {
/* columns rows colors chars-per-pixel */
"50 50 178 2 ",
"   c #F8B70D",
".  c #FEBC0D",
"X  c #EFB316",
"o  c #EEB41B",
"O  c #F2B514",
"+  c #FEBD10",
"@  c #F1B518",
"#  c #FDBF19",
"$  c #E1AE2A",
"%  c #E6B127",
"&  c #E9B325",
"*  c #E4B32F",
"=  c #E9B52A",
"-  c #F6BC24",
";  c #E3B335",
":  c #E3B63F",
">  c #FEC11D",
",  c #FEC224",
"<  c #FDC32B",
"1  c #FCC532",
"2  c #FFC936",
"3  c #FCC73A",
"4  c #FEC93C",
"5  c #DFB548",
"6  c #DDB344",
"7  c #DCB858",
"8  c #E3B847",
"9  c #E0B648",
"0  c #E3B949",
"q  c #E2B642",
"w  c #D8B760",
"e  c #DEBC64",
"r  c #E0BD62",
"t  c #EFC149",
"y  c #F8C743",
"u  c #FECB43",
"i  c #FBCB4A",
"p  c #F0C24A",
"a  c #FFD04A",
"s  c #EAC35E",
"d  c #FBCE57",
"f  c #F2C95A",
"g  c #F9CE5A",
"h  c #FED054",
"j  c #E5C267",
"k  c #EBC562",
"l  c #EFC964",
"z  c #E5C56F",
"x  c #F3CB64",
"c  c #FED66C",
"v  c #FCD365",
"b  c #EFCD72",
"n  c #E1C67E",
"m  c #E5C775",
"M  c #F0CE76",
"N  c #F4D175",
"B  c #FCD673",
"V  c #FED976",
"C  c #F9D67B",
"Z  c #FEDB7B",
"A  c #043C86",
"S  c #073F88",
"D  c #083F88",
"F  c #0C428A",
"G  c #10448C",
"H  c #16498F",
"J  c #205092",
"K  c #285696",
"L  c #36629F",
"P  c #3B659F",
"I  c #486FA5",
"U  c #456DA6",
"Y  c #4B72A8",
"T  c #5579AC",
"R  c #5A7DAE",
"E  c #6787B6",
"W  c #7391BC",
"Q  c #DBC383",
"!  c #D9C48D",
"~  c #DCC790",
"^  c #DCCB9E",
"/  c #E8CD86",
"(  c #EDD189",
")  c #FCDB84",
"_  c #F7DA8E",
"`  c #FBDC8B",
"'  c #EAD49B",
"]  c #F6DA90",
"[  c #F9DD92",
"{  c #FEE08F",
"}  c #FFE49A",
"|  c #FEE194",
" . c #D6C8A4",
".. c #DCCCA3",
"X. c #D9CDAD",
"o. c #D7CBAB",
"O. c #DED1AE",
"+. c #DDD1B0",
"@. c #E2D0A0",
"#. c #E6D7AF",
"$. c #EBD8A7",
"%. c #E4D8B9",
"&. c #F7E1A4",
"*. c #FEE5A2",
"=. c #FFE9AE",
"-. c #FEE9B2",
";. c #F1E2BB",
":. c #FFEDBE",
">. c #869FC3",
",. c #95ABCA",
"<. c #9DB1CE",
"1. c #ADBBCB",
"2. c #BCC5CE",
"3. c #B2C2D9",
"4. c #BFCCDF",
"5. c #CACFCF",
"6. c #E4DBC3",
"7. c #E3DCCB",
"8. c #E0DFD6",
"9. c #EEE3C6",
"0. c #ECE4CE",
"q. c #F5E7C1",
"w. c #F6E9C6",
"e. c #FEEFC4",
"r. c #F1E7CD",
"t. c #F5E9CA",
"y. c #FEF0CD",
"u. c #E6E2D7",
"i. c #E7E4DC",
"p. c #EBE6D9",
"a. c #EEE9DB",
"s. c #EAE4D5",
"d. c #F8EFD5",
"f. c #F2EDDE",
"g. c #F1E9D1",
"h. c #FEF2D2",
"j. c #FFF6DC",
"k. c #CED8E6",
"l. c #CFDAEB",
"z. c #D5DDE9",
"x. c #D8E1EF",
"c. c #E9E7E3",
"v. c #EDEAE3",
"b. c #E7E7E8",
"n. c #EEEEEE",
"m. c #F0ECE3",
"M. c #F0EFED",
"N. c #FFF7E2",
"B. c #FFF8E5",
"V. c #F3F1EE",
"C. c #FFFAEC",
"Z. c #FAF5E8",
"A. c #EEEFF0",
"S. c #EFF0F2",
"D. c #F4F4F4",
"F. c #FBFAF5",
"G. c #F6F7F9",
"H. c #F5F6F8",
"J. c #F7F8FB",
"K. c #F7F8F8",
"L. c #F8F8F8",
"P. c #F9F9F9",
"I. c #F8F8F9",
"U. c gray98",
"Y. c #FBFBFB",
"T. c #FAFAFB",
"R. c #F9F9FB",
"E. c #FAFBFD",
"W. c #FBFCFE",
"Q. c gray99",
"!. c #FDFDFD",
"~. c #FCFCFD",
"^. c #FEFEFE",
"/. c #FEFFFF",
"(. c white",
"). c #FFFFFE",
"_. c #FDFDFE",
"`. c #FCFCFC",
/* pixels */
"(.(.D.n.L.(.D.n.D.(.T.n.V.(.(.S.n.T.(.D.n.D.(.Q.n.D.(.Q.V.n.Q.(.D.n.K.(.T.n.V.(.Q.n.A.(.(.D.n.L.(.L.",
"(.(.D.n.T.(.D.n.D.Q.T.A.A.(.Q.V.A.T.(.D.S.V.F.Z.a.f.C.F.V.A.E.(.D.A.D.(.K.n.D.(.Q.S.A.T.Q.D.n.L.(.L.",
"D.V.G.T.D.D.D.(.K.D.D.U.T.V.D.T.E.D.f.w.&._ B v d d v B _ &.q.f.K.Q.D.S.D.U.T.D.D.T.U.D.D.L.Q.D.D.D.",
"n.n.T.(.D.n.D.(.K.n.D.(.Q.A.S.F.y.` g 3 , > + + . . + > # , 3 g { y.V.A.D.(.U.n.n.(.(.V.n.T.(.D.n.D.",
"T.L.D.D.D.L.D.D.D.K.K.D.D.K.q.c 4 > + . . + + + + + + + . . . + > 2 B w.D.D.D.K.K.D.D.D.T.D.D.L.T.D.",
"(.(.D.n.T.(.D.n.D.(.Q.S.a.| 4 > + + + + + + + + + + + + + + + + > . > 4 ] a.D.(.(.n.n.(.(.D.n.L.(.L.",
"D.D.L.D.D.D.L.L.D.K.D.t.v , . . + + + + + + + + + + + + + + + + . . . > , x t.G.D.D.D.D.D.L.L.D.D.D.",
"n.V.Q.(.D.n.L.(.J.n.;.i > . . > + + + + + + + + + + + + + + + + > . . . . > y ;.D.Q.(.D.n.T.(.D.n.D.",
"D.D.K.L.D.D.K.L.T.;.y + . . > . . > . > . . . . + + + + + + + + + + + + + . > 4 ;.D.L.D.D.D.T.D.D.D.",
"(.(.D.n.T.(.D.A.r.y > . . > . . . . . . . > . > + + + + + + + + + + + + + + . > y 9.D.U.(.D.n.T.(.T.",
"T.T.D.V.T.U.K.v.f > . . . . . . . > . . . > . . + . + + + + + + + + + + + + + . > f m.T.T.D.D.D.Q.L.",
"n.n.T.(.D.A.D._ + . > . . > . > . . > . . . . > + + + + + + + + + + + + + + + + . # _ V.A.T.(.D.n.D.",
"D.A.T.Q.D.D.r.1 . . . > . . . . . . . > . . > . + + + + + + + + . + + + + + + + + + 1 9.D.D.(.D.V.D.",
"(.(.D.n.L.T.b + > . . . > . . > > . . . . . . . + + + + + + + + + + + + + + + + + + + N Q.D.n.L.(.T.",
"Q.(.D.n.T.d.< + . > . > . > . . > > . > > > . > + + + + + + . + + + . . + > + . . + . - d.D.A.T.(.T.",
"V.S.K.T.D.( + + . . . . . . . . . , V } :.=.c < . + + + + + + + + . , B =.:.-.Z 1 . + # ( T.Q.D.n.D.",
"A.A.Q.Q.n.t . . . . . . . . . . 4 y.(.(.(.(.(.y.i . + + + + + + . u y.(.(.(.(.(.h.h + . p D.(.D.V.D.",
"U.R.D.D.t.# . > . > . > . > . 3 h.(.(.(.(.(.Q.(.j.2 . + + + + . < h.(.(.(.(.(.(.(.N.u . - 0.D.K.T.L.",
"(.(.S.S.$.+ . . . > . . > . > } (.(.(.(.S.,.T W x.} + + . . + . { (.(.(.(.K.<.T E k.=.# + @.A.T.(.T.",
"D.D.J.J.(   . > . . . > . . < N.(.(.(.(.>.S A A U 0.< . . > . , h.(.(.(.(.,.F A A L u.2 . ( K.D.D.D.",
"n.n.U.(.b . . . . . . > . . 2 C.(.(.(.H.P A S S F 5.2 . > . . < N.(.(.(.T.I S D F F 1.a . M (.D.n.D.",
"D.K.K.D.f   . . > . . . > . 2 C.(.(.(.G.U A F S H 5.2 . . . > < N.(.(.(.U.R A D S F 2.u . k D.D.D.D.",
"(.(.D.n.s . . > . > . > . . , h.(.(.(.(.3.J A F W q.> . . . . > e.(.(.(.(.4.K S F E s.< . s n.K.(.T.",
"T.T.D.n.f . . . . . . . . > . Z (.(.(.(.(.k.<.3.K.V . . > . > . c (.(.(.(.(.z.<.1.H.{ . . s A.F.T.L.",
"n.n.T.(.l . . . + + + + + + + , -.(.(.(.(.(.F.F.=.> . > . > . . > } Q.(.(.(.(.(.(.:., . . x (.D.n.D.",
"V.D.K.K.l . + + + + + + + + + . , } C.(.(.(.B.{ > > . . . . > . . > { N.Q.(.Q.C.} < . .   l T.D.V.D.",
"(.U.D.n.s . + + + + + + + . + + . # 3 c Z c 2 > > . . > . . . . > . > 2 v Z c 3 > . . > . s n.D.(.T.",
"T.(.D.n.k . + + + + + + + + + + + . . . . . . . . > . . > . > . . . . . . . > . . . . . . s n.T.(.K.",
"n.D.T.T.k . . + + + + + + + + + + + + . . . > . . . . . . > . . . > . . + + + + . + + + . l T.D.V.D.",
"n.M.T.~.l . + + + + + + + + + + + + + + . > . . . > . > . . > . . . . . + + + + + + + + . f (.D.n.D.",
"U.(.D.A.s . + + . + + + + + + + + + + + . . . . > . . . . . . . . > . . + + + + + + + + . s D.L.T.K.",
"(.(.S.n.s . + + + + + + + + + + + + + + . > . > . . . > . . > . . . > . > . + + + + + +   s n.D.(.T.",
"D.D.D.D.k . . + + + + + + + + + + + + + + + + + + + + + + + + + + + + + . > . > . . . . . f K.D.D.D.",
"n.n.(.(.l . . + + + + + + + + + + + + + . + + + + + + + + + + + + + + + . . . . > . . > . f (.D.n.D.",
"T.D.D.D.l . + + + + + + + . + + + + + + + + + + + + + + + + + + + + + + . > + + . . > .   s D.K.L.D.",
"(.(.A.n.s . + + + + + + + + + + + + + + + + + + + + + + . + + + + + + + + + + + . . . . . s n.K.(.T.",
"T.D.D.D.k   + + + + + + + + + + + + + + + + + + + + + + + + + + + + + + + + + + > . > . . s V.K.L.D.",
"n.V.T.(.l . + + + + + + + + + + + + + + + + + + + + + + + + + + + + + + + + + + . . . . . x (.D.n.D.",
"D.D.D.G.k . . + + + + + + + + + + + . + + + + + . + + + + + + + + + + + + + + + . . > . . s K.K.D.D.",
"(.(.D.n.s . . + + . + + + + + + + + + + + + + + + + + + + + + + . + + + + + + + > . . . . s n.K.(.L.",
"Q.T.D.n.s . + + + + + + + + + + + + + + + + + + + + + + . + + + + + + + + + + + . . > . . s m.K.Q.L.",
"n.D.T.T.l . + + + + + + + + + + + + + + + + + + + + + + + + + + + + + + + + + . > . . . . f U.K.A.D.",
"n.D.T.E.l . + + + + . . X O . + + + + + + + . . X X . + + + + + + + + . . X X . . . . . . l Q.D.M.D.",
"Y.T.D.A.k . + + + + @ w o.@.; . + + + + + . O e o.X.e O + + + + + + +   5  .^ q   > . > . s A.K.Q.L.",
"(.Q.D.n.z . + + . o ~ b.D.Q.6.= . + + + . O z V.S.D.D.n O . + + + + . 8 p.A.D.p.5 . + + . j n.L.(.L.",
"D.D.T.K./ . + . o ! S.T.L.D.D.@.O . + + . 6 i.D.T.T.D.b.e . + + + . ; 6.D.T.K.D.7.; . + . m U.D.D.D.",
"n.n.T.(.#.O . X Q n.D.(.(.V.S.D.n O . . & %.n.D.(.Q.n.D.f.8   . . % X.n.D.(.T.n.S.%.= . . ' (.D.n.D.",
"L.T.D.D.m.e $ Q n.K.G.D.D.D.T.K.b.n * ; ^ D.L.L.D.D.T.D.D.7.7 % 6 +.D.T.T.D.D.T.K.H...; 5 s.D.L.L.K.",
"(.(.D.n.K.D.s.n.D.(.U.n.V.(.(.V.n.H.v.i.n.D.(.T.n.D.(.(.V.n.D.p.c.n.K.(.T.n.D.(.(.n.n.v.V.V.n.T.(.T.",
"L.T.D.D.D.T.D.D.D.L.T.D.D.G.T.D.D.K.T.G.D.D.T.D.D.D.L.L.D.D.K.T.D.D.D.T.D.D.D.L.L.D.D.T.T.D.D.D.T.D."
};
