/* XPM */
static char *_0fcb764cc334159eeac842840890f29i9Ptc5ZOqrLZQRhG[] = {
/* columns rows colors chars-per-pixel */
"50 50 122 2 ",
"   c #9CA37F",
".  c #A0A57C",
"X  c #B4BA7C",
"o  c #B4C37D",
"O  c #BACC7D",
"+  c #DFDD4F",
"@  c #DEDD53",
"#  c #EEED53",
"$  c #ECEE5C",
"%  c #EFF25F",
"&  c #F6F757",
"*  c #F8F755",
"=  c #FCFA53",
"-  c #F4F55B",
";  c #F7F858",
":  c #FAFA58",
">  c #CDCD6A",
",  c #DADC6A",
"<  c #C5D276",
"1  c #CCD673",
"2  c #CDDA73",
"3  c #C2D17A",
"4  c #C8D37B",
"5  c #CAD978",
"6  c #D3DE73",
"7  c #D6E26F",
"8  c #DAE46B",
"9  c #E3E764",
"0  c #E4EA65",
"q  c #EBEE61",
"w  c #E1E46B",
"e  c #E3EA69",
"r  c #EDF163",
"t  c #3C57B2",
"y  c #445CB0",
"u  c #4B67B7",
"i  c #476ABE",
"p  c #496BBD",
"a  c #546DB4",
"s  c #5A76B5",
"d  c #5679B4",
"f  c #5775BB",
"g  c #5A77BA",
"h  c #5E7ABA",
"j  c #637EB4",
"k  c #1633CB",
"l  c #0724D6",
"z  c #0422D8",
"x  c #1C3BD5",
"c  c #1A3DDE",
"v  c #001FF4",
"b  c #0323E5",
"n  c #0B2FE7",
"m  c #0226EE",
"M  c #0528ED",
"N  c #092CEA",
"B  c #0E31E6",
"V  c #1337E2",
"C  c #1538E2",
"Z  c #1234E8",
"A  c #0022F2",
"S  c #1D41DD",
"D  c #2F4ECF",
"F  c #2F53CC",
"G  c #3B5FC5",
"H  c #3455CD",
"J  c #365AC9",
"K  c #3C5DCB",
"L  c #2547D6",
"P  c #2549D5",
"I  c #2C4ED3",
"U  c #2345DD",
"Y  c #2C4DD9",
"T  c #2C50D2",
"R  c #3556D3",
"E  c #3959D1",
"W  c #4565C3",
"Q  c #4769C3",
"!  c #4D6BC3",
"~  c #4665C9",
"^  c #5270C2",
"/  c #5975C0",
"(  c #75898F",
")  c #6F8591",
"_  c #6B85AF",
"`  c #6E88AF",
"'  c #7389A5",
"]  c #7A8FA1",
"[  c #7389AE",
"{  c #798FAA",
"}  c #7D96A3",
"|  c #7E99A4",
" . c #7692AA",
".. c #7D94AC",
"X. c #6581B4",
"o. c #748DB1",
"O. c #8A9D8F",
"+. c #839992",
"@. c #859E9A",
"#. c #9EB28A",
"$. c #8FA596",
"%. c #8DA29E",
"&. c #9BAD93",
"*. c #92A999",
"=. c #9AAC99",
"-. c #9AB196",
";. c #AABB84",
":. c #AABC84",
">. c #A3B48E",
",. c #A7BB8E",
"<. c #AABF88",
"1. c #AFBE88",
"2. c #AEBD8E",
"3. c #A3B595",
"4. c #8198A5",
"5. c #849AA7",
"6. c #889BA1",
"7. c #8FA3A0",
"8. c #B0C382",
"9. c #B4C382",
"0. c #BBC680",
"q. c #C0CD84",
/* pixels */
"l l l l l l l l l l l l l l l z l k y ( . > @ + + + # @ >   ) t k l z l l l l l l l l l l l l l l l ",
"A A A A A A A A A A A A A v M R { 0.0 : = = = = = = = = & * - 9 9.[ Y M v A A A A A A A A A A A A A ",
"A A A A A A A A A A A A M ! >.0 = = = = = = = = = = = = = = = = = = 0 &.~ N A A A A A A A A A A A A ",
"A A A A A A A A A v m J #.r = = = = = = = = = = = = = = = = = = = = = = r 3.R A A A A A A A A A A A ",
"A A A A A A A A A V | 9 = = = = = = = = = = = = = = = = = = = = = = = = = = 8  .C A A A A A A A A A ",
"A A A A A A A A D o : = = = = = = = = = = = = = = = = = = = = = = = = = = = = ; <.P A A A A A A A A ",
"A A A A A A A Q 2 = = = = = = = = = = = = = = = = = = = = = = = = = = = = = = = = 5 G A A A A A A A ",
"A m A A A m p 8 = = = = = = = = = = = = = = = = = = = = = = = = = = = = = = = = = = 6 G A A A A A A ",
"A A A A A K 8 = = = = = = = = = = = = = = = = = = = = = = = = = = = = = = = = = = = = 2 P v A A A A ",
"A A A A P 3 = = = = = = = = = = = = = = = = = = = = = = = = = = = = = = = = = = = = = = :.c A A A A ",
"A A A N -.= = = = = = = = : = = = = = = = = = = = = * = = = = = = = = = = = = = = = = = : @.m A A A ",
"A A A g - = = = = = = = = = = = = = = = = * = = = = = = = = = = = = = = = = = = = = = = = 0 G A A A ",
"A A c 4 = = = = = = = = = : = = = = = = = = = = = = = = = = = * = = = = = = = = = = = = = = :.n A A ",
"A A o.= = = = = = = = = = = = = = = = * = = = = = = = = = = = = = = = = = = = = = = = = = = - h A A ",
"A C 4 = = = = = = = = = = = = = = = = = = = = * = = = = = = = = = = = = = = = = = = = = = = - 5.A A ",
"v s & = = = = = = = = = = = = = = = = = = = = = = = = = = = = = = = = = = = = = = = = = $ 2.^ Z A A ",
"b #.= = = * = = = = = = = = = = = = = = = = = = = = = = = = = = = = = = = = = = = = 0 -.G M v A A A ",
"D $ = = = = = = = = = = = = = = = = = = = = = = = = = = = = = = = = = = = = = = 8 %.E N v A A A A A ",
"' * = = = = = = = = = = = = = = = = = = = = = = = = = = = = = * = = = = = = 6 4.L m v A A A A A A A ",
"X = = = = = = = = = = = = = * = = = = = * = = = = = = = = = = = = = = ; < _ U A v A A A A A A A A A ",
", = = = = = = = = = = = = = = = = = = = = = = = = = = = = = = = = - q.j C A A A A A A A A A A A A A ",
"- = = = = = = = = = = = = = = = = = = = = = = = = = = = = = = $ ;.p Z v A A A A A A A A A A A A A A ",
"= = = = = = = = = = = = = = = = = = = = = = = = = = = = = 9 3.Q N v A A A A A A A A A A m A A A A A ",
"= = = = = = = = = * = = = = = = * = = = = = = = = = = e $.H M v A A A A A A A A A A A A A A A A A A ",
"= = = = = = = = = = = = = * = = = = = = = = = = = 0 4.Y A A A A A A A A A A A A m A A A A A A A A A ",
"= = = = = = * = = = = = = = = = = = = = = = = * = 8 ` U A A A A A A A A A A A A A A A A A A A A A A ",
"* = = = = = = = = = = = = = = = = = = = = = = = = = = 6 } L A A A A A A A A m A A A A A A A A A A A ",
"= = = = = = = = = = = = = = = = = = = = = = = = = = = = : 8 7.E m v A A A A A A A A A A A A m A A A ",
"- = = = = = = = = = = = = = = = = = = = = = = = = = = = = = = 0 &.K N v A A A A A A A A A A A A A A ",
", = = * = = = = = = = = = = = = = * = = = = = = = = = = = = = = = q 2.! N A A A A A A A A A A A A A ",
"o = = = = = = = = = = * = = = = = = = = = = = = = = = = = = = = = = = - 9.f C A A A A A A A A A A A ",
"] = = = = = = = = = = = = = = = = = = = = = = = = = = = = = = = = = = = = ; 4 _ c A A A A A A A A A ",
"H $ * * = = = = = = = = : = = = = = = = = = = = = * = = = = = = = = = = = = = * 1 ] Y A A A A A A A ",
"n X = = = = = = = = = = = = = = = = = = = = = = = = = = = = = = = * = = = = = = = = 8 %.I m v A A A ",
"A j = = = = = = = = = = = = = = = = = = = = = = = = = = = = = = = = = = = = = = = = = = 9 =.K N A A ",
"A c 1 = = = = = = = = = = = = = = = * = = = = = = = = = = = = = = = = = = = = = = = = = = = q ..A A ",
"A A ..= = = = = = = = = = = = = = = = = = = = = = = = = = = = = = = = = = = = = = = = = = = : X.A A ",
"A A L 6 = = = = = = = = * = = = = = = = = = = = = = = = = * = = = = = = * = = = = = = = = = o B A A ",
"A A A j ; = = = = = = = = = = = = = = = = = = * = = = = = = = = = = = = = = = = = = = = = $ p A A A ",
"A A A n ,.= = = = = = = = = = = = = = = = = = = = = = = = = = = = = = = = = = = = = = : = @.m A A A ",
"A A A v T 2 = = * = = = = = = = = = = = = = = = = = = = = = * = = = = = = : = = = = = = O c A m A A ",
"A A A A A Q 0 = = = = = = = = = = = = = = = = = = = = = = = = = = = = = = = = = = = = 7 F A A A A A ",
"A A A A A m d 0 = = = = = = = = = = = = = = = = = = = = = = = = = = = = = = = = = = 8 p A A A A A A ",
"A A A A A A m d 8 = = = = = = = = = = = = = = = = = = = = = = = = = = = = = = = = 7 p m A A A A A A ",
"A A A A A A v m J 3 : = = = = = = = = = = = = = = * = = = = = = = = = = = = = = O H m A A A A A A A ",
"A A A A A m A A m c *.$ = = = = = = = = = = = = = = = = = = = = = = = = = = r %.S v v A A A A A A A ",
"A A A A A A A A A v M i 8.- = = = = = = = = = = = = = = = = = = = = = = - :.W m A A A A A A A m A A ",
"m A A A A A A A A A A v B j 9.- = = = = = = = = = = = = = = = = = = % 1./ B v A A A A A A A A A A A ",
"A A A A A A A A A A A A A v N ~ @.1 - : = = * = = = = = = = = q < 6.K M A A A A A A A A A A A A A A ",
"b b b b b b b b M b b b b b b b b x a O.X w # # # # # $ , X +.u x b b b b b b b b b b b b m b b b b "
};
